:FULLY-SPECIFIED
:FORCE-ALL-JOINTS-BE-3DOF
:DEGREES
1020
root 0.249929 13.5522 -35.3933 372.226 -28.3094 342.315
lfemur -69.8705 35.9878 -3.9766
ltibia 82.2177 0 0
lfoot -12.7333 -8.41818 0
ltoes -5.9758 0 0
rfemur 10.1485 -8.70776 8.63606
rtibia 36.5107 0 0
rfoot -22.5991 -26.1357 0
rtoes -31.6109 0 0
lowerback 10.3074 -0.856736 5.46087
upperback -1.7446 0.0795137 8.18878
thorax -7.70258 -0.0386447 5.68781
lowerneck -5.01536 8.31577 3.48318
upperneck 7.89344 10.9417 -1.04055
head 3.72485 5.47801 -0.396611
lclavicle -8.40646e-14 3.85832e-14 0
lhumerus 83.4329 -11.1905 27.1194
lradius 95.6913 0 0
lwrist 10.7013 0 0
lhand -36.4899 31.0034 0
lfingers 7.12502 0 0
lthumb -9.58248 60.7655 0
rclavicle -8.40646e-14 3.85832e-14 0
rhumerus -77.4148 22.919 -94.984
rradius 112.047 0 0
rwrist -63.1571 0 0
rhand -10.2533 -25.2837 0
rfingers 7.12502 0 0
rthumb 15.7397 -54.6636 0
1021
root 0.248651 13.5484 -35.3853 372.235 -28.2947 342.319
lfemur -69.9126 36.01 -3.99998
ltibia 82.2906 0 0
lfoot -12.7911 -8.43225 0
ltoes -5.97257 0 0
rfemur 10.1876 -8.70843 8.6226
rtibia 36.4773 0 0
rfoot -22.5988 -26.1417 0
rtoes -31.6013 0 0
lowerback 10.2863 -0.853396 5.43485
upperback -1.75798 0.0796075 8.18578
thorax -7.70483 -0.0373991 5.69911
lowerneck -4.98508 8.32216 3.4683
upperneck 7.88892 10.9532 -1.04762
head 3.71715 5.48316 -0.397379
lclavicle -8.26305e-14 3.98138e-14 0
lhumerus 83.4085 -10.5431 27.3106
lradius 95.4625 0 0
lwrist 10.5579 0 0
lhand -36.4989 30.8808 0
lfingers 7.12502 0 0
lthumb -9.59117 60.6425 0
rclavicle -8.26305e-14 3.98138e-14 0
rhumerus -77.4435 22.964 -95.0058
rradius 112.03 0 0
rwrist -63.1723 0 0
rhand -10.2473 -25.2531 0
rfingers 7.12502 0 0
rthumb 15.7454 -54.6326 0
1022
root 0.247372 13.5447 -35.3773 372.245 -28.28 342.323
lfemur -69.9547 36.0322 -4.02336
ltibia 82.3634 0 0
lfoot -12.8489 -8.44632 0
ltoes -5.96933 0 0
rfemur 10.2267 -8.70911 8.60913
rtibia 36.444 0 0
rfoot -22.5985 -26.1477 0
rtoes -31.5917 0 0
lowerback 10.2652 -0.850056 5.40883
upperback -1.77136 0.0797012 8.18277
thorax -7.70708 -0.0361535 5.71041
lowerneck -4.95479 8.32854 3.45342
upperneck 7.88439 10.9647 -1.0547
head 3.70945 5.48832 -0.398147
lclavicle -8.11964e-14 4.10443e-14 0
lhumerus 83.384 -9.8957 27.5018
lradius 95.2337 0 0
lwrist 10.4145 0 0
lhand -36.5079 30.7583 0
lfingers 7.12502 0 0
lthumb -9.59986 60.5196 0
rclavicle -8.11964e-14 4.10443e-14 0
rhumerus -77.4722 23.009 -95.0276
rradius 112.013 0 0
rwrist -63.1875 0 0
rhand -10.2414 -25.2225 0
rfingers 7.12502 0 0
rthumb 15.7512 -54.6016 0
1023
root 0.246094 13.5409 -35.3693 372.255 -28.2652 342.327
lfemur -69.9968 36.0544 -4.04674
ltibia 82.4362 0 0
lfoot -12.9068 -8.46039 0
ltoes -5.96609 0 0
rfemur 10.2659 -8.70978 8.59567
rtibia 36.4106 0 0
rfoot -22.5982 -26.1537 0
rtoes -31.5821 0 0
lowerback 10.2441 -0.846716 5.3828
upperback -1.78474 0.079795 8.17976
thorax -7.70933 -0.0349079 5.72171
lowerneck -4.92451 8.33493 3.43853
upperneck 7.87987 10.9762 -1.06177
head 3.70175 5.49347 -0.398915
lclavicle -7.97623e-14 4.22749e-14 0
lhumerus 83.3595 -9.24831 27.6931
lradius 95.0048 0 0
lwrist 10.271 0 0
lhand -36.5169 30.6358 0
lfingers 7.12502 0 0
lthumb -9.60855 60.3967 0
rclavicle -7.97623e-14 4.22749e-14 0
rhumerus -77.5009 23.054 -95.0495
rradius 111.996 0 0
rwrist -63.2027 0 0
rhand -10.2354 -25.192 0
rfingers 7.12502 0 0
rthumb 15.7569 -54.5705 0
1024
root 0.244816 13.5371 -35.3614 372.264 -28.2505 342.331
lfemur -70.0389 36.0766 -4.07013
ltibia 82.5091 0 0
lfoot -12.9646 -8.47446 0
ltoes -5.96286 0 0
rfemur 10.305 -8.71045 8.5822
rtibia 36.3772 0 0
rfoot -22.5979 -26.1597 0
rtoes -31.5725 0 0
lowerback 10.223 -0.843376 5.35678
upperback -1.79812 0.0798887 8.17676
thorax -7.71157 -0.0336622 5.73301
lowerneck -4.89422 8.34132 3.42365
upperneck 7.87535 10.9876 -1.06885
head 3.69405 5.49862 -0.399683
lclavicle -7.83282e-14 4.35055e-14 0
lhumerus 83.3351 -8.60093 27.8843
lradius 94.776 0 0
lwrist 10.1276 0 0
lhand -36.5259 30.5132 0
lfingers 7.12502 0 0
lthumb -9.61723 60.2737 0
rclavicle -7.83282e-14 4.35055e-14 0
rhumerus -77.5296 23.099 -95.0713
rradius 111.979 0 0
rwrist -63.2179 0 0
rhand -10.2294 -25.1614 0
rfingers 7.12502 0 0
rthumb 15.7627 -54.5395 0
1025
root 0.243537 13.5334 -35.3534 372.274 -28.2358 342.335
lfemur -70.081 36.0989 -4.09351
ltibia 82.5819 0 0
lfoot -13.0224 -8.48853 0
ltoes -5.95962 0 0
rfemur 10.3441 -8.71113 8.56874
rtibia 36.3439 0 0
rfoot -22.5976 -26.1657 0
rtoes -31.563 0 0
lowerback 10.2018 -0.840036 5.33076
upperback -1.81151 0.0799825 8.17375
thorax -7.71382 -0.0324166 5.74431
lowerneck -4.86394 8.3477 3.40877
upperneck 7.87082 10.9991 -1.07592
head 3.68635 5.50378 -0.400452
lclavicle -7.68942e-14 4.4736e-14 0
lhumerus 83.3106 -7.95354 28.0755
lradius 94.5472 0 0
lwrist 9.98418 0 0
lhand -36.5349 30.3907 0
lfingers 7.12502 0 0
lthumb -9.62592 60.1508 0
rclavicle -7.68942e-14 4.4736e-14 0
rhumerus -77.5583 23.144 -95.0931
rradius 111.963 0 0
rwrist -63.2332 0 0
rhand -10.2235 -25.1308 0
rfingers 7.12502 0 0
rthumb 15.7684 -54.5085 0
1026
root 0.242259 13.5296 -35.3454 372.284 -28.2211 342.339
lfemur -70.1231 36.1211 -4.11689
ltibia 82.6547 0 0
lfoot -13.0802 -8.5026 0
ltoes -5.95638 0 0
rfemur 10.3832 -8.7118 8.55527
rtibia 36.3105 0 0
rfoot -22.5973 -26.1717 0
rtoes -31.5534 0 0
lowerback 10.1807 -0.836696 5.30474
upperback -1.82489 0.0800762 8.17074
thorax -7.71607 -0.031171 5.75561
lowerneck -4.83365 8.35409 3.39389
upperneck 7.8663 11.0106 -1.083
head 3.67865 5.50893 -0.40122
lclavicle -7.54601e-14 4.59666e-14 0
lhumerus 83.2861 -7.30616 28.2667
lradius 94.3184 0 0
lwrist 9.84075 0 0
lhand -36.5439 30.2682 0
lfingers 7.12502 0 0
lthumb -9.63461 60.0279 0
rclavicle -7.54601e-14 4.59666e-14 0
rhumerus -77.587 23.189 -95.115
rradius 111.946 0 0
rwrist -63.2484 0 0
rhand -10.2175 -25.1002 0
rfingers 7.12502 0 0
rthumb 15.7742 -54.4774 0
1027
root 0.24098 13.5258 -35.3374 372.293 -28.2064 342.344
lfemur -70.1653 36.1433 -4.14027
ltibia 82.7276 0 0
lfoot -13.138 -8.51668 0
ltoes -5.95315 0 0
rfemur 10.4223 -8.71248 8.54181
rtibia 36.2772 0 0
rfoot -22.597 -26.1777 0
rtoes -31.5438 0 0
lowerback 10.1596 -0.833356 5.27872
upperback -1.83827 0.08017 8.16774
thorax -7.71832 -0.0299254 5.76691
lowerneck -4.80337 8.36047 3.37901
upperneck 7.86178 11.0221 -1.09007
head 3.67095 5.51409 -0.401988
lclavicle -7.4026e-14 4.71972e-14 0
lhumerus 83.2617 -6.65877 28.4579
lradius 94.0896 0 0
lwrist 9.69733 0 0
lhand -36.5529 30.1456 0
lfingers 7.12502 0 0
lthumb -9.6433 59.9049 0
rclavicle -7.4026e-14 4.71972e-14 0
rhumerus -77.6156 23.234 -95.1368
rradius 111.929 0 0
rwrist -63.2636 0 0
rhand -10.2115 -25.0696 0
rfingers 7.12502 0 0
rthumb 15.7799 -54.4464 0
1028
root 0.239702 13.522 -35.3295 372.303 -28.1916 342.348
lfemur -70.2074 36.1655 -4.16366
ltibia 82.8004 0 0
lfoot -13.1959 -8.53075 0
ltoes -5.94991 0 0
rfemur 10.4615 -8.71315 8.52834
rtibia 36.2438 0 0
rfoot -22.5967 -26.1837 0
rtoes -31.5342 0 0
lowerback 10.1385 -0.830016 5.25269
upperback -1.85165 0.0802637 8.16473
thorax -7.72056 -0.0286797 5.77821
lowerneck -4.77308 8.36686 3.36412
upperneck 7.85726 11.0335 -1.09715
head 3.66325 5.51924 -0.402756
lclavicle -7.25919e-14 4.84278e-14 0
lhumerus 83.2372 -6.01139 28.6492
lradius 93.8607 0 0
lwrist 9.5539 0 0
lhand -36.5619 30.0231 0
lfingers 7.12502 0 0
lthumb -9.65198 59.782 0
rclavicle -7.25919e-14 4.84278e-14 0
rhumerus -77.6443 23.279 -95.1586
rradius 111.912 0 0
rwrist -63.2788 0 0
rhand -10.2055 -25.0391 0
rfingers 7.12502 0 0
rthumb 15.7857 -54.4154 0
1029
root 0.238423 13.5183 -35.3215 372.312 -28.1769 342.352
lfemur -70.2495 36.1877 -4.18704
ltibia 82.8733 0 0
lfoot -13.2537 -8.54482 0
ltoes -5.94668 0 0
rfemur 10.5006 -8.71383 8.51488
rtibia 36.2105 0 0
rfoot -22.5964 -26.1897 0
rtoes -31.5246 0 0
lowerback 10.1174 -0.826676 5.22667
upperback -1.86503 0.0803575 8.16173
thorax -7.72281 -0.0274341 5.78951
lowerneck -4.7428 8.37324 3.34924
upperneck 7.85273 11.045 -1.10422
head 3.65555 5.5244 -0.403524
lclavicle -7.11578e-14 4.96583e-14 0
lhumerus 83.2128 -5.364 28.8404
lradius 93.6319 0 0
lwrist 9.41048 0 0
lhand -36.5709 29.9005 0
lfingers 7.12502 0 0
lthumb -9.66067 59.659 0
rclavicle -7.11578e-14 4.96583e-14 0
rhumerus -77.673 23.324 -95.1805
rradius 111.895 0 0
rwrist -63.294 0 0
rhand -10.1996 -25.0085 0
rfingers 7.12502 0 0
rthumb 15.7914 -54.3843 0
